#!OML:ASF E:\Steps\Project 1\Capture day 1\Session 2\Subject.ASF
:FULLY-SPECIFIED
:DEGREES
228
root 14.302 16.3264 17.5934 -172.205 -5.98687 170.183
lowerback -20.7399 0.514762 2.97507
upperback 2.8052 0.0127877 -0.838051
thorax 14.9589 0.303487 -2.65853
lowerneck 0.0469213 5.80306 -0.247865
upperneck 17.4223 7.14743 -1.58718
head 5.28676 2.95673 -0.168179
rclavicle -6.75868e-015 1.27222e-014
rhumerus -39.4169 -4.51153 -71.755
rradius 50.8163
rwrist -7.56327
rhand -1.88721 -61.5337
rfingers 7.12502
rthumb 23.7816 90.082
lclavicle -6.75868e-015 1.27222e-014
lhumerus -40.9809 12.3019 68.3438
lradius 22.3472
lwrist -5.79476
lhand -17.4554 -14.9837
lfingers 7.12502
lthumb 8.79588 14.813
rfemur -3.96262 3.58042 8.95744
rtibia 45.1318
rfoot -47.1684 -13.9688
rtoes -43.1411
lfemur -43.1471 -3.00678 10.9066
ltibia 15.8167
lfoot 12.4118 22.9016
ltoes -3.5972
229
root 14.2166 16.3054 17.5081 -172.942 -6.33646 170.385
lowerback -20.1921 0.36379 3.39265
upperback 2.99915 -0.291569 -0.71018
thorax 14.8421 0.197314 -2.84571
lowerneck 0.0423908 5.82164 -0.343962
upperneck 17.414 7.19536 -1.72495
head 5.28708 2.96367 -0.193096
rclavicle -3.47873e-015 2.22639e-014
rhumerus -39.3496 -4.1946 -71.5515
rradius 51.0521
rwrist -7.79644
rhand -5.30915 -56.9527
rfingers 7.12502
rthumb 20.4964 -85.8908
lclavicle -3.47873e-015 2.22639e-014
lhumerus -41.3834 12.5742 68.0009
lradius 22.3557
lwrist -5.92497
lhand -17.3192 -14.8191
lfingers 7.12502
lthumb 8.92736 14.9721
rfemur -2.46291 3.4345 8.92467
rtibia 44.6609
rfoot -47.0202 -13.833
rtoes -43.4639
lfemur -42.518 -3.50087 11.1364
ltibia 15.3825
lfoot 12.9118 22.677
ltoes -3.29282
230
root 14.1239 16.2769 17.424 -173.378 -6.14703 170.568
lowerback -19.8285 0.45422 3.83843
upperback 3.07158 -0.280154 -0.627302
thorax 14.7131 0.234642 -2.99813
lowerneck 0.0669457 5.77435 -0.25386
upperneck 17.4684 7.14776 -1.93588
head 5.31068 2.92703 -0.275306
rclavicle -8.94531e-015 5.88403e-014
rhumerus -39.4552 -3.77057 -71.4957
rradius 52.0753
rwrist -7.95814
rhand -6.64755 -55.7904
rfingers 7.12502
rthumb 19.2098 -84.8617
lclavicle -8.94531e-015 5.88403e-014
lhumerus -41.7425 12.7637 67.6251
lradius 22.295
lwrist -6.18538
lhand -16.9946 -14.583
lfingers 7.12502
lthumb 9.24054 15.1945
rfemur -1.61045 3.6245 8.76302
rtibia 44.5852
rfoot -47.0734 -13.5732
rtoes -43.8589
lfemur -41.8333 -3.72319 11.5412
ltibia 14.9012
lfoot 12.6961 22.9807
ltoes 0.635534
231
root 14.0291 16.2479 17.3386 -173.849 -5.98983 170.758
lowerback -19.3526 0.503248 4.278
upperback 3.15585 -0.315097 -0.537949
thorax 14.5267 0.248107 -3.15307
lowerneck 0.037008 5.81161 -0.213778
upperneck 17.6081 7.21078 -2.10301
head 5.36776 2.93995 -0.328456
rclavicle 2.38542e-015 3.18055e-015
rhumerus -39.389 -3.48829 -71.3861
rradius 52.6107
rwrist -8.08139
rhand -3.73358 -59.3607
rfingers 7.12502
rthumb 22.0098 -88.1283
lclavicle 2.38542e-015 3.18055e-015
lhumerus -42.0204 13.1675 67.1046
lradius 22.1696
lwrist -6.61679
lhand -16.481 -14.577
lfingers 7.12502
lthumb 9.73615 15.1779
rfemur -0.579178 3.83292 8.6246
rtibia 44.3127
rfoot -46.9791 -13.4691
rtoes -44.4871
lfemur -41.0959 -4.07446 11.9607
ltibia 14.3318
lfoot 12.7758 23.2813
ltoes 2.72722
232
root 13.935 16.216 17.254 -174.239 -5.93528 170.995
lowerback -18.9611 0.500523 4.72818
upperback 3.22461 -0.422916 -0.447762
thorax 14.3652 0.228433 -3.33648
lowerneck 0.0613348 5.89695 -0.220467
upperneck 17.7172 7.32463 -2.16034
head 5.4011 2.98325 -0.339664
rclavicle -1.26228e-014 -3.18055e-014
rhumerus -39.1653 -3.30118 -71.2924
rradius 52.8769
rwrist -8.10059
rhand -1.7946 -62.2379
rfingers 7.12502
rthumb 23.8704 90.7746
lclavicle -1.26228e-014 -3.18055e-014
lhumerus -42.3136 13.3186 66.67
lradius 22.194
lwrist -6.65891
lhand -16.1202 -14.5469
lfingers 7.12502
lthumb 10.0842 15.1915
rfemur 0.425164 3.96118 8.51331
rtibia 43.869
rfoot -46.6946 -13.1501
rtoes -44.707
lfemur -40.5837 -4.16165 12.2829
ltibia 13.9113
lfoot 13.6383 23.172
ltoes 0.647024
233
root 13.8362 16.1841 17.1731 -174.345 -5.71144 171.198
lowerback -18.8611 0.615568 5.1816
upperback 3.22228 -0.380008 -0.408333
thorax 14.3087 0.281555 -3.53626
lowerneck 0.187901 5.91308 -0.0224461
upperneck 17.7585 7.34005 -2.2725
head 5.40465 2.99184 -0.409135
rclavicle -1.37161e-014 3.49861e-014
rhumerus -39.054 -3.20842 -71.2073
rradius 53.1662
rwrist -8.17036
rhand -3.98471 -56.8507
rfingers 7.12502
rthumb 21.7686 -85.6465
lclavicle -1.37161e-014 3.49861e-014
lhumerus -42.5345 13.0333 66.4469
lradius 22.2452
lwrist -6.34574
lhand -16.2183 -14.5115
lfingers 7.12502
lthumb 9.98958 15.2314
rfemur 0.891902 4.10031 8.29983
rtibia 43.8321
rfoot -46.6231 -12.8196
rtoes -44.8576
lfemur -40.25 -4.08168 12.6558
ltibia 13.4499
lfoot 14.2637 23.434
ltoes 0.422981
234
root 13.7325 16.1547 17.0914 -174.246 -5.22978 171.252
lowerback -18.9392 0.794116 5.54869
upperback 3.21955 -0.238135 -0.39583
thorax 14.3702 0.377822 -3.68925
lowerneck 0.228944 5.95051 0.0236591
upperneck 17.6616 7.4034 -2.33424
head 5.37259 3.02776 -0.434598
rclavicle 6.4605e-015 1.59028e-015
rhumerus -38.9214 -2.97333 -71.1035
rradius 53.4132
rwrist -8.64274
rhand -5.73789 -57.6528
rfingers 7.12502
rthumb 20.0843 -86.6347
lclavicle 6.4605e-015 1.59028e-015
lhumerus -42.6499 12.8781 66.2694
lradius 22.2134
lwrist -5.90079
lhand -16.5527 -14.7324
lfingers 7.12502
lthumb 9.66692 15.0257
rfemur 0.991648 4.36913 7.87436
rtibia 44.0066
rfoot -46.7445 -12.544
rtoes -44.9297
lfemur -39.9144 -4.11141 13.0813
ltibia 12.9391
lfoot 14.0162 24.3839
ltoes 3.72535
235
root 13.6275 16.1228 17.0025 -174.267 -4.78605 171.25
lowerback -18.9112 0.873109 5.82061
upperback 3.27665 -0.206581 -0.344912
thorax 14.4274 0.414912 -3.77692
lowerneck 0.191125 5.99825 -0.225543
upperneck 17.4312 7.49681 -2.31591
head 5.29832 3.07272 -0.385227
rclavicle -1.20265e-014 -6.20208e-014
rhumerus -38.6307 -2.44424 -70.9952
rradius 54.0869
rwrist -8.69855
rhand -5.37361 -60.5418
rfingers 7.12502
rthumb 20.4344 -89.4865
lclavicle -1.20265e-014 -6.20208e-014
lhumerus -42.8675 12.9131 66.0923
lradius 22.2717
lwrist -5.30133
lhand -16.7415 -14.9552
lfingers 7.12502
lthumb 9.4848 14.8113
rfemur 1.31474 4.63705 7.41985
rtibia 43.8926
rfoot -46.6527 -12.9468
rtoes -46.004
lfemur -39.4427 -4.24158 13.3642
ltibia 12.4974
lfoot 14.2372 24.729
ltoes 3.51265
236
root 13.523 16.0864 16.9172 -174.308 -4.46357 171.341
lowerback -18.7375 0.954594 6.12693
upperback 3.27965 -0.165826 -0.310473
thorax 14.3345 0.45367 -3.8984
lowerneck 0.183866 5.95617 -0.336881
upperneck 17.4468 7.42664 -2.20794
head 5.29501 3.03672 -0.337049
rclavicle 4.77083e-015 1.145e-013
rhumerus -38.4835 -2.13867 -70.9056
rradius 54.5264
rwrist -8.64347
rhand -4.75678 -60.7633
rfingers 7.12502
rthumb 21.0271 -89.6434
lclavicle 4.77083e-015 1.145e-013
lhumerus -43.1204 12.9126 65.7594
lradius 22.3511
lwrist -5.00232
lhand -16.501 -15.02
lfingers 7.12502
lthumb 9.71682 14.7358
rfemur 1.68221 4.832 7.10345
rtibia 43.7178
rfoot -46.3388 -13.8187
rtoes -47.7928
lfemur -39.0937 -4.34521 13.6716
ltibia 12.1547
lfoot 15.1288 24.3499
ltoes -0.544193
237
root 13.4202 16.0502 16.8364 -174.236 -4.169 171.498
lowerback -18.5524 1.08786 6.43133
upperback 3.21338 -0.0475952 -0.30145
thorax 14.1628 0.524289 -4.02405
lowerneck 0.245158 5.92813 -0.185425
upperneck 17.6509 7.35509 -2.17026
head 5.3516 3.00056 -0.353349
rclavicle 3.97569e-016 -2.22639e-014
rhumerus -38.5807 -2.14659 -70.8445
rradius 54.9917
rwrist -8.45761
rhand -4.0385 -59.3282
rfingers 7.12502
rthumb 21.717 -88.13
lclavicle 3.97569e-016 -2.22639e-014
lhumerus -43.2443 12.8064 65.3476
lradius 22.3799
lwrist -4.93558
lhand -16.153 -15.2013
lfingers 7.12502
lthumb 10.0526 14.5386
rfemur 1.96636 5.04295 6.8411
rtibia 43.6029
rfoot -46.1804 -13.6951
rtoes -48.2049
lfemur -38.9654 -4.57722 14.185
ltibia 11.9966
lfoot 14.9356 24.5142
ltoes -0.0869081
238
root 13.3161 16.0158 16.7528 -174.154 -3.92057 171.689
lowerback -18.4288 1.19176 6.69457
upperback 3.21303 0.0274336 -0.238692
thorax 14.1015 0.573647 -4.07931
lowerneck 0.261571 5.92034 0.00469419
upperneck 17.6736 7.35935 -2.35391
head 5.37021 3.00158 -0.440749
rclavicle -3.18055e-015 -2.8625e-014
rhumerus -38.4597 -2.15265 -70.7309
rradius 55.3483
rwrist -8.48349
rhand -3.63111 -57.5151
rfingers 7.12502
rthumb 22.1082 -86.2712
lclavicle -3.18055e-015 -2.8625e-014
lhumerus -43.1951 12.5257 65.23
lradius 22.4797
lwrist -4.57594
lhand -16.2635 -14.8063
lfingers 7.12502
lthumb 9.94594 14.9387
rfemur 2.27675 5.31325 6.62618
rtibia 43.497
rfoot -46.1671 -13.1166
rtoes -47.837
lfemur -38.8838 -4.8972 14.7195
ltibia 11.944
lfoot 14.7121 24.5542
ltoes 0.0494815
239
root 13.2101 15.9794 16.6713 -174.021 -3.75257 171.923
lowerback -18.3619 1.24553 6.95152
upperback 3.25716 0.0228275 -0.12345
thorax 14.117 0.586379 -4.09593
lowerneck 0.197476 5.78416 -0.0676213
upperneck 17.7089 7.17822 -2.37644
head 5.38744 2.90425 -0.442535
rclavicle 5.86415e-015 -6.04305e-014
rhumerus -38.1317 -2.08556 -70.5927
rradius 55.5396
rwrist -8.59187
rhand -3.83282 -55.869
rfingers 7.12502
rthumb 21.9145 -84.6478
lclavicle 5.86415e-015 -6.04305e-014
lhumerus -43.1168 12.3289 65.1542
lradius 22.5779
lwrist -4.25553
lhand -16.8565 -14.2184
lfingers 7.12502
lthumb 9.37377 15.5532
rfemur 2.4671 5.55148 6.47495
rtibia 43.3903
rfoot -45.942 -13.3922
rtoes -48.6061
lfemur -38.965 -4.92721 15.0952
ltibia 12.0151
lfoot 15.967 23.566
ltoes -4.87494
